<svg xmlns="http://www.w3.org/2000/svg" width="315.91" height="435.39" viewBox="0 0 315.91 435.39">
	<style type="text/css">
		.st1{fill:#ffffff;}
		.st0{fill:#ffffff;fill-rule:evenodd;}
	</style>
	<path class="st0" d="M189.81,318.58C181.78,324.45 181.84,330.31 182.05,337.86C182.52,354.9 182.13,372.02 183.64,388.97C184.61,399.99 170.56,415.59 157.74,415.67C145.09,415.74 131.91,402.9 131.86,390.04C131.83,379.9 131.86,369.75 131.86,359.61L132.61,359.61C132.61,349.47 132.39,339.31 132.72,329.17C132.85,325.01 131.61,322.65 128.07,320.27C94.03,297.38 101.57,262.34 118.59,243.95C142.47,218.14 183.59,224.89 201.15,257.17C211.7,276.54 207.47,305.69 189.81,318.58M315.82,410.91C315.24,402.12 315.72,393.26 315.72,384.43C315.72,334.12 315.72,283.81 315.71,233.49C315.71,221.64 310.38,214.11 299.6,210.48C295.77,209.2 291.89,208.64 287.85,208.64C202.72,208.67 117.59,208.67 32.46,208.67C29.63,208.67 26.8,208.6 23.97,208.68C8.78,209.08 0,218.1 0,233.31C0,293.28 0,353.26 0,413.23C0,425.49 6.28,432.85 18.38,434.69C21.33,435.13 24.34,435.35 27.31,435.36C71.13,435.4 114.94,435.39 158.76,435.39L226.23,435.39C248.05,435.39 269.88,435.41 291.7,435.38C308.16,435.35 316.91,427.12 315.82,410.91"/>
	<path class="st1" d="M277.67,114.75C275.01,50.92 222.43,0 157.95,0C93.44,0 40.85,50.97 38.23,114.84C37.97,115.58 37.82,116.38 37.82,117.22L37.82,187.14C37.82,190.76 40.51,193.69 43.82,193.69L62.15,193.69C65.47,193.69 68.15,190.76 68.15,187.14L68.15,117.74C69.26,69.09 109.04,30 157.95,30C207.56,30 247.78,70.21 247.78,119.82L247.78,187.14C247.78,190.76 250.47,193.69 253.78,193.69L272.11,193.69C275.43,193.69 278.11,190.76 278.11,187.14L278.11,117.22C278.11,116.35 277.95,115.51 277.67,114.75"/>
</svg>