<svg xmlns="http://www.w3.org/2000/svg" width="68.86" height="68.29" viewBox="0 0 68.86 68.29">
	<style type="text/css">
		.st0{fill:#ffffff;}
	</style>
	<path class="st0" d="M38.06,34.14L68.06,4.6C69.06,3.62 69.13,1.95 68.23,0.87C67.33,-0.21 65.79,-0.29 64.79,0.68L34.43,30.57L4.07,0.68C3.07,-0.29 1.53,-0.21 0.63,0.87C-0.27,1.95 -0.19,3.62 0.8,4.6L30.8,34.14L0.8,63.69C-0.19,64.67 -0.27,66.34 0.63,67.42C1.53,68.51 3.07,68.59 4.07,67.61L34.43,37.72L64.79,67.61C65.26,68.07 65.84,68.29 66.43,68.29C67.09,68.29 67.75,68 68.23,67.42C69.13,66.34 69.06,64.67 68.06,63.69Z"/>
</svg>